<svg xmlns="http://www.w3.org/2000/svg" width="621.821" height="154.307" viewBox="0 0 621.821 154.307"><path d="M327.9,61.875,316.363,90.07H284.128l36.766-90h37.031c12.121,0,18.877,2,23.636,6.793,5.463,5.594,7.12,14.253,4.459,23.576-2.395,8.392-8.462,17.05-15.786,22.645-8.314,6.261-16.9,8.791-30.083,8.791Zm15.687-38.629-6.713,16.518H339.8c8.125,0,13.166-3.2,14.953-9.457,1.482-5.195-.515-7.061-7.842-7.061Z" fill="#fff"/><path d="M459.15,64.169a14.594,14.594,0,0,0-.71,2.062c-1.316,4.611.244,7.643,4.006,7.643,2.911,0,5.147-1.455,7.45-4.853H496.83c-4.019,6.43-6.323,8.978-11.487,12.618a47.235,47.235,0,0,1-27.329,8.614c-20.14,0-30.577-11.89-25.59-29.36,5.228-18.32,24.219-32.151,44.116-32.151,18.683,0,29.659,12.982,24.915,29.6-.381,1.335-1.178,3.276-2.147,5.824Zm4.416-11.648h13.1C478,47.426,476.752,45,472.627,45,468.745,45,465.9,47.305,463.566,52.521Z" fill="#fff"/><path d="M566.058,33.9l-11.8,17.107a17.182,17.182,0,0,0-11.753-4.732c-3.155,0-5.13.971-5.684,2.913-.519,1.819.209,2.668,2.375,3.154l4.75,1.213c7.972,1.82,11.372,7.764,9.156,15.529-3.532,12.375-17.551,21.11-33.93,21.11a45.6,45.6,0,0,1-19.083-4.125c-1.161-.606-2.895-1.335-5.131-2.426l11.676-17.107c4.924,4,9.951,5.945,14.925,5.945,2.791,0,4.8-1.091,5.355-3.033.588-2.062-.643-3.275-5.063-4.367-10.642-2.67-13.5-6.673-11.183-14.8C514.2,37.9,528.083,28.8,543.491,28.8A53.694,53.694,0,0,1,566.058,33.9Z" fill="#fff"/><path d="M621.821,33.8l-11.8,17.106a17.183,17.183,0,0,0-11.753-4.731c-3.155,0-5.13.97-5.684,2.912-.519,1.819.209,2.669,2.375,3.154l4.75,1.213c7.972,1.82,11.371,7.765,9.155,15.529C605.336,81.362,591.317,90.1,574.938,90.1a45.6,45.6,0,0,1-19.083-4.125c-1.161-.607-2.895-1.335-5.131-2.427L562.4,66.439c4.924,4,9.951,5.946,14.924,5.946,2.792,0,4.8-1.092,5.355-3.034.589-2.062-.642-3.275-5.062-4.367-10.642-2.67-13.5-6.673-11.183-14.8,3.531-12.375,17.412-21.475,32.82-21.475A53.687,53.687,0,0,1,621.821,33.8Z" fill="#fff"/><path d="M194.171,64.174a14.709,14.709,0,0,0-.707,2.056c-1.311,4.594.244,7.616,3.992,7.616,2.9,0,5.13-1.45,7.427-4.836h26.842c-4,6.408-6.3,8.948-11.448,12.575a47.079,47.079,0,0,1-27.238,8.585c-20.071,0-30.473-11.849-25.5-29.261,5.211-18.258,24.138-32.042,43.968-32.042,18.621,0,29.559,12.938,24.831,29.5-.38,1.33-1.174,3.265-2.14,5.8Zm4.4-11.608h13.058c1.329-5.079.084-7.5-4.027-7.5C203.735,45.07,200.9,47.367,198.573,52.566Z" fill="#fff"/><path d="M22.763,0H16.91C13.02,1.722,8.49,6.126,4.934,12.1.281,19.927-1.19,27.891.988,31.639l9.57-.016c7.4-.012,14.31-.023,16.1-.023C18.333,50.7,9.739,70.9,2.113,90h32.3C47.418,60.83,73.043,0,73.043,0Z" fill="#fff"/><path d="M296.664,28.825c-5.607-.2-10.356,1.452-17.662,8.922l-.868-.019c2.022-3.337,2.312-3.816,3.069-5.224a.872.872,0,0,0-.385-1.2,32.072,32.072,0,0,0-13.02-2.474,31.665,31.665,0,0,0-13.893,2.844,1,1,0,0,0-.47.522L249.4,42.163,229.747,90.17h28.175l8.024-19.388c4.3-10.4,9.928-15.72,16.821-15.72a12.923,12.923,0,0,1,6.828,2.332l11.323-27.809A28.693,28.693,0,0,0,296.664,28.825Z" fill="#fff"/><path d="M434.492,28.825c-5.606-.2-10.356,1.452-17.662,8.922l-.868-.019c2.022-3.337,2.313-3.816,3.069-5.224a.872.872,0,0,0-.385-1.2,32.072,32.072,0,0,0-13.02-2.474,31.665,31.665,0,0,0-13.893,2.844,1,1,0,0,0-.47.522l-4.035,9.972L367.575,90.17H395.75l8.025-19.388c4.3-10.4,9.928-15.72,16.82-15.72,2.177,0,4.253.76,6.828,2.332l11.323-27.809A28.671,28.671,0,0,0,434.492,28.825Z" fill="#fff"/><path d="M167.413,46.155l5.526-13.532a.962.962,0,0,0-.467-1.237,27.347,27.347,0,0,0-7.445-2.107,39.795,39.795,0,0,0-11.423,0,26.721,26.721,0,0,0-8.431,2.55,1,1,0,0,0-.486.6L143.328,37l-.723,3.419-.958.252a18.412,18.412,0,0,0-.816-4.311c-1.745-5.317-6.067-7.714-13.221-7.714-16.2,0-33.215,14.81-38.562,33.545-4.589,16.077,2.395,27.976,16.446,27.976,8.735,0,14.25-2.912,20.4-11.14l.813.254c-.351.894-4.877,11.951-5.262,12.919-5.451-.3-11.074-.413-16.6-.353C95.1,91.956,81,93.112,71.1,97.068c-19.377,7.746-23.949,20.215-24.1,28.726-.221,12.666,5.967,20.516,16,24.543,18.584,7.461,54.567,5.346,66.388-14.474,2.867-4.807,6.175-12.322,9.974-21.457,13.327,1.428,19.714.436,21.538-6.383,1.58-5.907-3.852-9.732-13.864-12.289.856-2.072,4.015-9.631,4.909-11.766Zm-61.091,80.039c-7.1,7.744-23.554,9.508-31.372,4.523-6.3-4.019-3.5-15.249,9.2-18.732,11.137-3.054,29.4-1.186,29.4-1.186S109.446,122.784,106.322,126.194Zm27.537-65.771c-1.445,5.064-5.911,8.735-10.721,8.735-4.178,0-6.312-3.165-4.976-7.849,1.446-5.063,6.436-9.241,11.119-9.241C133.332,52.068,135.232,55.613,133.859,60.423Z" fill="#fff"/><path d="M91.377,30.02a31.258,31.258,0,0,0-4.44-.979,39.795,39.795,0,0,0-11.423,0,31.836,31.836,0,0,0-4.441.979,22.427,22.427,0,0,0-3.633,1.409,1.023,1.023,0,0,0-.488.536L66.2,33.811l-2.092,5.135-7.45,18.283-2.2,5.41L48.431,77.418,43.175,90.177H71.106l23.648-57.9a.9.9,0,0,0-.438-1.154A22.417,22.417,0,0,0,91.377,30.02Z" fill="#fff"/><ellipse cx="86.612" cy="13.181" rx="14.074" ry="13.181" fill="#fff"/><path d="M608.337,97.6A4.31,4.31,0,0,1,601,94.5a4.114,4.114,0,0,1,1.348-3.146,4.226,4.226,0,0,1,2.97-1.172,4.33,4.33,0,0,1,3.024,7.418Zm-5.561-5.6a3.586,3.586,0,0,0,.018,5.051,3.536,3.536,0,0,0,5.033-.006A3.5,3.5,0,0,0,608.87,94.5a3.462,3.462,0,0,0-1.037-2.5,3.5,3.5,0,0,0-5.057,0Zm.645,4.9V92.11l1.333,0q.888,0,.987.009a2.291,2.291,0,0,1,.943.246,1.205,1.205,0,0,1,.639,1.143,1.049,1.049,0,0,1-.337.872,1.57,1.57,0,0,1-.829.32,1.639,1.639,0,0,1,.68.276,1.3,1.3,0,0,1,.422,1.075v.427a1.112,1.112,0,0,0,.009.141.661.661,0,0,0,.035.141l.044.134h-1.2a3.536,3.536,0,0,1-.079-.662,2.228,2.228,0,0,0-.079-.586.578.578,0,0,0-.352-.351,1.375,1.375,0,0,0-.427-.076l-.276-.018h-.263V96.9Zm2.285-3.843a2.077,2.077,0,0,0-.727-.1h-.3v1.389h.486a1.168,1.168,0,0,0,.686-.176.65.65,0,0,0,.246-.568A.547.547,0,0,0,605.706,93.054Z" fill="#fff"/></svg>